HIERARCHY
ROOT root     
{
	OFFSET 0.0000 0.0000 0.0000
	CHANNELS 6 Xposition Yposition Zposition Zrotation Yrotation Xrotation
	JOINT pelvis   
	{
		OFFSET 0.0000 0.0000 0.0000
		CHANNELS 3 Zrotation Yrotation Xrotation
		JOINT thorax   
		{
			OFFSET 0.0000 23.0750 -5.0000
			CHANNELS 3 Zrotation Yrotation Xrotation
			JOINT rclavicle
			{
				OFFSET 0.0000 28.0009 0.0000
				CHANNELS 3 Zrotation Yrotation Xrotation
				JOINT rhumerus 
				{
					OFFSET -18.5725 5.5939 0.0000
					CHANNELS 3 Zrotation Yrotation Xrotation
					JOINT rradius  
					{
						OFFSET -24.8459 0.0000 0.0000
						CHANNELS 3 Zrotation Yrotation Xrotation
						JOINT rhand    
						{
							OFFSET -24.5477 0.0000 0.0000
							CHANNELS 3 Zrotation Yrotation Xrotation
							End Site
							{
								OFFSET -8.1826 0.0000 0.0000
							}
						}
					}
				}
			}
			JOINT lclavicle
			{
				OFFSET 0.0000 28.0009 0.0000
				CHANNELS 3 Zrotation Yrotation Xrotation
				JOINT lhumerus 
				{
					OFFSET 18.5725 5.5939 0.0000
					CHANNELS 3 Zrotation Yrotation Xrotation
					JOINT lradius  
					{
						OFFSET 24.8459 0.0000 0.0000
						CHANNELS 3 Zrotation Yrotation Xrotation
						JOINT lhand    
						{
							OFFSET 24.5477 0.0000 0.0000
							CHANNELS 3 Zrotation Yrotation Xrotation
							End Site
							{
								OFFSET 8.1826 0.0000 0.0000
							}
						}
					}
				}
			}
			JOINT head     
			{
				OFFSET 0.0000 35.2030 0.0000
				CHANNELS 3 Zrotation Yrotation Xrotation
				End Site
				{
					OFFSET 0.0000 11.7343 0.0000
				}
			}
		}
		JOINT rfemur   
		{
			OFFSET -8.2817 0.0000 0.0000
			CHANNELS 3 Zrotation Yrotation Xrotation
			JOINT rtibia   
			{
				OFFSET 0.0000 -43.3627 0.0000
				CHANNELS 3 Zrotation Yrotation Xrotation
				JOINT rfoot    
				{
					OFFSET 0.0000 -38.2947 0.0000
					CHANNELS 3 Zrotation Yrotation Xrotation
					JOINT rtoes    
					{
						OFFSET 0.0000 0.0000 16.6054
						CHANNELS 3 Zrotation Yrotation Xrotation
						End Site
						{
							OFFSET 0.0000 0.0000 5.5351
						}
					}
				}
			}
		}
		JOINT lfemur   
		{
			OFFSET 8.2817 0.0000 0.0000
			CHANNELS 3 Zrotation Yrotation Xrotation
			JOINT ltibia   
			{
				OFFSET 0.0000 -43.3627 0.0000
				CHANNELS 3 Zrotation Yrotation Xrotation
				JOINT lfoot    
				{
					OFFSET 0.0000 -38.2947 0.0000
					CHANNELS 3 Zrotation Yrotation Xrotation
					JOINT ltoes    
					{
						OFFSET 0.0000 0.0000 16.6054
						CHANNELS 3 Zrotation Yrotation Xrotation
						End Site
						{
							OFFSET 0.0000 0.0000 5.5351
						}
					}
				}
			}
		}
	}
}
MOTION
Frames: 23
Frame Time: .0333333
159.79 84.391 27.128 150.968 -89.1166 -126.548 0 -0 0 9.66717 -11.2887 -8.53266 27.2025 -8.86284 -8.47092e-06 48.1971 0.639516 -8.36491 -0 72.6216 -0 1.67857 3.52146 0.0515987 -25.6914 9.82724 -1.39941e-05 -38.9148 -7.3273 3.54802 0 -72.2223 0 6.41171 -0.6138 -0.0344001 -6.95723 6.7366 -17.3817 2.34844 0.127007 -43.6434 -0 -0 28.5997 7.62857e-06 -3.79325 3.91128 -0.259105 -8.90262e-07 -39.8284 3.54184 12.8216 -0.0859984 -0 -0 20.6438 -7.79925e-07 1.06751 27.7647 0.497296 -7.23187e-07 -86.2814 
158.64 84.229 26.886 142.674 -89.1815 -118.367 0 -0 0 9.95795 -11.344 -8.791 27.287 -8.90849 9.4755e-05 47.9701 0.995764 -8.68159 -8.25443e-07 72.2489 -1.13096e-06 1.2885 3.54707 0.0398993 -25.7803 9.8538 6.80158e-05 -38.7025 -6.9453 3.60772 1.13791e-06 -71.8601 -1.57021e-06 6.3428 -0.6309 -0.0350008 -7.35395 6.81654 -16.9415 2.27412 0.464012 -43.4844 -0 -0 30.1736 -1.16855e-07 -3.90387 3.0453 -0.2077 1.43589e-06 -36.2226 3.9221 12.7452 0.105808 -0 -0 21.5006 -1.67568e-06 0.638503 28.7936 0.307596 -1.979e-07 -85.15 
157.49 84.095 26.632 132.328 -89.3661 -108.099 0 -0 0 10.2568 -11.4078 -9.06652 27.3827 -8.93506 2.1546e-05 47.759 1.38085 -8.95702 -0 71.8136 -0 0.871889 3.56852 0.0271996 -25.8598 9.8747 -1.91196e-05 -38.5406 -6.56008 3.66953 0 -71.4317 0 6.25508 -0.636104 -0.0347992 -7.72669 6.90338 -16.4625 2.26267 0.77279 -43.2289 -0 -0 31.5348 7.57905e-07 -4.12055 2.04055 -0.147003 -1.33987e-06 -33.1008 4.32853 12.6604 0.185497 -0 -0 22.4604 1.25941e-06 0.248901 29.9115 0.124101 -2.5091e-07 -83.8619 
156.34 83.989 26.365 118.184 -89.4045 -94.0779 0 -0 0 10.5815 -11.4851 -9.32421 27.4821 -8.96588 -3.47083e-05 47.5573 1.83009 -9.17036 -1.09887e-06 71.3187 -1.53151e-06 0.422792 3.57766 0.0131999 -25.9411 9.91393 -1.88302e-05 -38.4199 -6.22046 3.74147 7.57619e-07 -70.9214 -1.0637e-06 6.14471 -0.625196 -0.0335992 -8.08831 6.99071 -15.9664 2.32935 1.05353 -42.8332 -0 -0 32.647 -9.50511e-09 -4.4386 0.931195 -0.0723001 -1.5314e-07 -30.5108 4.7842 12.5953 0.173113 -0 -0 23.5372 3.42187e-07 -0.119099 31.0532 -0.0614995 -2.25023e-07 -81.7271 
155.21 83.913 26.091 94.7816 -89.5175 -70.7677 0 -0 0 10.9039 -11.5856 -9.59731 27.5811 -8.98278 2.38353e-05 47.3904 2.29531 -9.33719 -7.51647e-07 70.7948 -1.05779e-06 -0.0524007 3.57881 -0.00160003 -26.0123 9.94692 -9.44906e-06 -38.3371 -5.89071 3.81477 7.31372e-07 -70.3527 -1.03771e-06 6.00639 -0.593493 -0.0311003 -8.43098 7.06981 -15.4503 2.43634 1.3038 -42.3283 -0 -0 33.4922 1.09645e-07 -4.85694 -0.2219 0.0189 5.86606e-08 -28.5573 5.24057 12.504 0.0332265 -0 -0 24.7112 -1.34041e-06 -0.365403 32.1973 -0.194702 -1.75142e-06 -79.2506 
154.15 83.903 25.741 18.5541 -88.6693 5.65397 0 -0 0 11.9207 -12.522 -10.4038 27.5908 -8.99907 -4.90068e-06 47.2174 2.74054 -9.43406 -0 70.2585 -0 -0.548806 3.57074 -0.0171005 -26.232 9.99455 1.33707e-05 -38.2316 -5.55605 3.9117 -1.01128e-06 -69.7364 7.04643e-07 5.83684 -0.540995 -0.0276 -8.87473 7.14427 -14.8846 3.05342 0.761381 -41.871 -0 -0 33.8562 2.51472e-06 -5.48464 -1.32404 0.127101 -4.55181e-07 -27.0983 6.1464 11.6197 -0.984538 -0 -0 26.5067 -7.87289e-07 -0.586597 33.0872 -0.320195 -1.8581e-06 -76.4119 
153.04 83.887 25.461 14.9153 -88.3498 9.21119 0 -0 0 12.2264 -12.666 -10.6746 27.6656 -9.00332 -7.07967e-05 47.1388 3.22258 -9.50598 -7.04144e-07 69.726 -1.01078e-06 -1.05819 3.55403 -0.0327997 -26.2911 10.0185 -1.10592e-05 -38.2013 -5.28163 3.99527 6.77535e-07 -69.0709 -9.845e-07 5.63612 -0.467495 -0.023 -9.19243 7.17863 -14.3654 3.22155 0.935607 -41.1299 -0 -0 34.1709 -2.80356e-06 -6.03094 -2.42155 0.255797 2.0615e-07 -26.2185 6.58253 11.4664 -1.35055 -0 -0 27.8368 -1.2672e-06 -0.492293 34.0493 -0.275602 6.79459e-06 -73.0874 
151.93 83.899 25.186 12.8569 -88.0067 11.1759 0 -0 0 12.4963 -12.8306 -10.9343 27.7245 -9.00333 1.5744e-05 47.1105 3.69202 -9.53611 -9.90213e-07 69.2177 -6.83326e-07 -1.56773 3.53079 -0.0483008 -26.3469 10.0324 -3.85878e-06 -38.1796 -5.03738 4.087 0 -68.3779 0 5.40592 -0.3774 -0.0178001 -9.49628 7.17749 -13.8527 3.39471 1.05791 -40.2793 -0 -0 34.2507 -4.22197e-07 -6.5918 -3.42215 0.395202 -3.75746e-08 -25.7308 6.97684 11.2663 -1.81321 -0 -0 29.2216 1.16886e-08 -0.174801 34.8328 -0.0997994 6.41633e-07 -69.5517 
150.83 83.938 24.919 11.9302 -87.6182 12.0078 0 -0 0 12.7221 -13.0056 -11.1779 27.7655 -9.00108 -6.1327e-05 47.1322 4.13942 -9.52829 -6.6501e-07 68.7508 -9.72128e-07 -2.06256 3.50384 -0.063098 -26.402 10.0358 -6.45038e-05 -38.1576 -4.82723 4.19046 -9.33315e-07 -67.671 6.25637e-07 5.1509 -0.275498 -0.0123999 -9.78653 7.13479 -13.3525 3.56316 1.1274 -39.3312 -0 -0 34.1186 -3.11701e-07 -7.13752 -4.2867 0.536296 -5.25975e-06 -25.5169 7.3206 11.021 -2.3627 -0 -0 30.6461 7.37311e-07 0.371398 35.3823 0.215103 -5.26835e-06 -65.9281 
149.74 84 24.66 11.8259 -87.1756 12.0225 0 -0 0 12.8922 -13.1808 -11.4025 27.7884 -8.99662 -3.73466e-05 47.2047 4.55497 -9.48715 -0 68.3366 -0 -2.52686 3.47618 -0.076698 -26.456 10.0283 1.51456e-05 -38.1238 -4.65129 4.30701 0 -66.9629 0 4.87786 -0.168697 -0.0072 -10.0619 7.04711 -12.8656 3.71652 1.14258 -38.3004 -0 -0 33.8084 2.10693e-06 -7.63962 -4.98838 0.668202 -2.46143e-07 -25.4657 7.60244 10.7333 -2.98817 -0 -0 32.093 -3.05736e-06 1.141 35.664 0.665315 -3.00115e-07 -62.4239 
148.66 84.084 24.413 12.3025 -86.6994 11.4576 0 -0 0 13.0015 -13.3457 -11.6042 27.7917 -8.98902 4.35755e-05 47.32 4.93235 -9.41602 -6.36484e-07 67.9787 -9.44002e-07 -2.94335 3.45089 -0.0886977 -26.5135 10.0093 4.08342e-05 -38.0733 -4.50683 4.43675 5.79928e-07 -66.2716 -8.88379e-07 4.59481 -0.0632008 -0.00249996 -10.3213 6.91403 -12.3949 3.84951 1.1063 -37.2031 -0 -0 33.3523 2.95973e-06 -8.07706 -5.51281 0.781108 -1.6633e-06 -25.4834 7.81931 10.4131 -3.67767 -0 -0 33.5483 -2.37697e-06 2.10822 35.6596 1.22941 2.28289e-06 -59.2103 
147.59 84.188 24.177 13.1622 -86.2258 10.504 0 -0 0 13.041 -13.4888 -11.7824 27.7788 -8.97867 7.14475e-05 47.474 5.2705 -9.31595 -9.33596e-07 67.6793 -6.25923e-07 -3.29801 3.43054 -0.098801 -26.5742 9.98446 -5.97589e-06 -37.9989 -4.39615 4.58046 0 -65.6089 0 4.31198 0.0348998 0.00129999 -10.5627 6.73862 -11.9364 3.95648 1.02112 -36.0622 -0 -0 32.7827 1.92336e-06 -8.43355 -5.85993 0.867205 2.24256e-06 -25.507 7.96688 10.0772 -4.42512 -0 -0 34.9983 -3.36511e-06 3.22925 35.3572 1.86995 -2.02772e-05 -56.2778 
146.53 84.311 23.952 14.2355 -85.7549 9.33542 0 -0 0 13.016 -13.595 -11.9337 27.7502 -8.96043 -4.01765e-05 47.6574 5.56727 -9.19039 -9.25433e-07 67.4379 -6.1763e-07 -3.57693 3.41757 -0.106697 -26.641 9.9512 2.87073e-05 -37.8958 -4.30798 4.73069 -8.51631e-07 -64.9912 5.42447e-07 4.03732 0.121506 0.00430021 -10.7877 6.52634 -11.49 4.04019 0.896108 -34.8875 -0 -0 32.1282 6.39109e-07 -8.70475 -6.0395 0.92289 -1.05596e-05 -25.5068 8.04958 9.7392 -5.21497 -0 -0 36.4169 -4.61774e-05 4.46907 34.8001 2.55399 7.61598e-05 -53.9817 
145.48 84.451 23.736 15.4433 -85.3031 8.03401 0 -0 0 12.9252 -13.6573 -12.0584 27.7069 -8.9337 -1.85484e-06 47.8652 5.82821 -9.03675 -8.64289e-07 67.2447 -1.29974e-06 -3.77205 3.41396 -0.112499 -26.7156 9.91671 -5.85975e-05 -37.7638 -4.24196 4.88312 -8.36699e-07 -64.4283 5.27176e-07 3.77964 0.194 0.0064 -10.996 6.28515 -11.0527 4.10151 0.737419 -33.6992 -0 -0 31.4122 2.7164e-06 -8.89017 -6.07227 0.947888 -3.8968e-06 -25.4798 8.07076 9.42414 -6.04062 -0 -0 37.7917 1.90163e-05 5.7711 34.0019 3.2349 2.73874e-06 -52.2004 
144.44 84.607 23.53 16.7652 -84.8675 6.6317 0 -0 0 12.7679 -13.6675 -12.1615 27.6536 -8.89652 4.05521e-05 48.0886 6.05888 -8.85266 -8.57004e-07 67.0917 -1.29256e-06 -3.87743 3.42024 -0.115803 -26.7953 9.87127 -4.50653e-05 -37.603 -4.16861 5.02205 5.14537e-07 -63.9425 -8.24363e-07 3.54376 0.252703 0.00779999 -11.1881 6.02388 -10.6199 4.14029 0.547823 -32.5153 -0 -0 30.6592 2.67587e-06 -8.99166 -5.9842 0.9451 -5.59253e-06 -25.4424 8.02892 9.14974 -6.89767 -0 -0 39.1055 -1.41862e-05 7.09147 33.0095 3.8772 -5.15479e-05 -50.9033 
143.41 84.778 23.328 18.0158 -84.4843 5.29063 0 -0 0 12.5633 -13.6212 -12.2207 27.5887 -8.84366 -3.78452e-05 48.3204 6.26886 -8.63266 -9.10088e-07 66.9678 -6.02022e-07 -3.89769 3.43672 -0.117001 -26.8826 9.86374 7.72296e-06 -37.4182 -4.15645 5.16419 -8.13669e-07 -63.5049 5.03561e-07 3.33778 0.295704 0.00860012 -11.3703 5.75238 -10.1972 4.17256 0.350202 -31.3174 -0 -0 29.8622 1.62372e-06 -9.03238 -5.79793 0.919986 -9.49506e-06 -25.4292 7.95128 8.94865 -7.75837 -0 -0 40.3379 -2.98066e-05 8.37817 31.8692 4.44635 -9.84227e-06 -50.0315 
142.39 84.962 23.131 19.3303 -84.1495 3.89163 0 -0 0 12.3033 -13.515 -12.255 27.5167 -8.77647 -2.29406e-05 48.5562 6.46487 -8.37267 -0 66.8664 -0 -3.83246 3.46202 -0.115899 -26.9758 9.85217 -5.43751e-05 -37.2075 -4.12356 5.27284 0 -63.1595 0 3.15832 0.329098 0.00909963 -11.5421 5.47886 -9.7761 4.19071 0.137991 -30.1329 -0 -0 29.0459 -6.66891e-06 -9.01161 -5.53849 0.876894 -1.0217e-06 -25.4869 7.82254 8.82483 -8.62896 -0 -0 41.4728 4.34481e-05 9.60495 30.635 4.92849 -2.7196e-05 -49.4168 
141.37 85.157 22.938 20.6977 -83.8768 2.43851 0 -0 0 11.9942 -13.3523 -12.258 27.4379 -8.69365 -2.73436e-05 48.7926 6.65434 -8.06591 -0 66.7806 -0 -3.69216 3.4939 -0.112598 -27.0712 9.86567 -4.30942e-05 -36.9785 -4.10431 5.35515 4.88655e-07 -62.889 -7.99156e-07 3.00648 0.3547 0.00929997 -11.7075 5.21142 -9.35824 4.19883 -0.0799098 -28.9564 -0 -0 28.2121 2.04164e-07 -8.94203 -5.22156 0.820394 -5.82962e-06 -25.6595 7.64724 8.78341 -9.4935 -0 -0 42.4875 6.57905e-05 10.7583 29.3856 5.3265 -3.10749e-05 -49.2209 
140.36 85.363 22.746 22.1141 -83.6699 0.930317 0 -0 0 11.6406 -13.1335 -12.2238 27.3538 -8.59504 -2.66789e-05 49.0271 6.84544 -7.70785 -0 66.7039 -0 -3.48672 3.52936 -0.1075 -27.1661 9.89503 -6.99371e-05 -36.7329 -4.07701 5.39476 4.84305e-07 -62.7013 -7.94941e-07 2.87717 0.376796 0.00949976 -11.8692 4.95542 -8.94475 4.19908 -0.295079 -27.7802 -0 -0 27.3555 5.43808e-06 -8.83429 -4.85328 0.753404 -4.82912e-06 -25.9983 7.43146 8.8348 -10.3405 -0 -0 43.3793 -3.04073e-05 11.8052 28.1379 5.62934 -1.30428e-05 -49.0286 
139.35 85.575 22.557 23.6306 -83.5242 -0.683336 0 -0 0 11.2432 -12.8634 -12.1564 27.2629 -8.48214 6.70013e-06 49.2572 7.04184 -7.29298 -0 66.6364 -0 -3.22835 3.56445 -0.1005 -27.2564 9.95063 6.28546e-05 -36.4757 -4.05072 5.39245 6.81374e-07 -62.5944 -1.12078e-06 2.76589 0.398502 0.0096001 -12.0293 4.71423 -8.53655 4.18764 -0.50511 -26.6038 -0 -0 26.4789 -7.37926e-06 -8.69091 -4.43375 0.676994 5.34455e-07 -26.5378 7.16936 8.96626 -11.1642 -0 -0 44.1319 8.80864e-05 12.7491 26.9585 5.85647 -1.85088e-05 -48.9706 
138.33 85.793 22.369 25.2925 -83.4434 -2.44985 0 -0 0 10.8023 -12.5466 -12.0566 27.1676 -8.35712 5.55582e-05 49.4838 7.24723 -6.81877 -0 66.5811 -0 -2.92892 3.59472 -0.0919015 -27.3396 10.0335 2.01324e-06 -36.2094 -4.02259 5.34456 -7.9176e-07 -62.5628 4.81043e-07 2.66663 0.422099 0.00980013 -12.1881 4.48953 -8.13667 4.16058 -0.705536 -25.4244 -0 -0 25.5828 -6.38786e-06 -8.51228 -3.95637 0.591695 -4.24906e-07 -27.2967 6.85858 9.16528 -11.9592 -0 -0 44.7424 4.03568e-05 13.5858 25.8698 6.0191 3.01742e-05 -48.9361 
137.32 86.014 22.183 27.1226 -83.4157 -4.38227 0 -0 0 10.3242 -12.1858 -11.9369 27.0632 -8.22333 4.72596e-05 49.71 7.46157 -6.28675 -0 66.5445 -0 -2.59544 3.61631 -0.0819978 -27.409 10.1243 6.9603e-05 -35.9376 -3.96027 5.24004 0 -62.6185 0 2.57137 0.451402 0.0100999 -12.3479 4.28028 -7.74523 4.11575 -0.890851 -24.25 -0 -0 24.6717 -4.0421e-06 -8.2974 -3.41038 0.497099 1.1089e-06 -28.268 6.49899 9.41985 -12.7376 -0 -0 45.2267 0.000101367 14.3048 24.8637 6.11922 1.38988e-05 -48.7534 
136.31 86.233 22.001 29.2378 -83.4329 -6.62405 0 -0 0 9.79366 -11.7908 -11.7633 26.9569 -8.08195 -9.89587e-06 49.9273 7.69286 -5.69277 -0 66.5323 -0 -2.24526 3.62456 -0.0710976 -27.4625 10.2639 3.74314e-05 -35.6616 -3.93511 5.10019 0 -62.7238 0 2.47965 0.481198 0.0103997 -12.5044 4.08618 -7.37669 4.04229 -1.06549 -23.0462 -0 -0 23.7434 -4.52097e-06 -8.03185 -2.78802 0.393301 -8.62909e-07 -29.4399 6.08436 9.70022 -13.4561 -0 -0 45.5603 -3.98141e-05 14.9243 23.9729 6.18076 -8.27672e-05 -48.5735 
